<?xml version="1.0" standalone="no"?><!DOCTYPE svg PUBLIC "-//W3C//DTD SVG 1.1//EN" "http://www.w3.org/Graphics/SVG/1.1/DTD/svg11.dtd"><svg t="1581518995651" class="icon" viewBox="0 0 1024 1024" version="1.1" xmlns="http://www.w3.org/2000/svg" p-id="5050" xmlns:xlink="http://www.w3.org/1999/xlink" width="200" height="200"><defs><style type="text/css"></style></defs><path d="M924.444444 267.377778c-73.955556 102.4-182.044444 227.555556-307.2 352.711111-28.444444 28.444444-196.266667 193.422222-352.711111 304.355555 73.955556 45.511111 159.288889 71.111111 250.311111 71.111112C782.222222 995.555556 995.555556 782.222222 995.555556 517.688889c0-91.022222-25.6-179.2-71.111112-250.311111zM637.155556 822.044444c-36.977778 0-65.422222-28.444444-65.422223-65.422222s28.444444-65.422222 65.422223-65.422222c36.977778 0 65.422222 28.444444 65.422222 65.422222s-28.444444 65.422222-65.422222 65.422222zM887.466667 216.177778c65.422222-91.022222 93.866667-159.288889 73.955555-179.2-5.688889-5.688889-14.222222-8.533333-22.755555-8.533334-31.288889 0-91.022222 31.288889-167.822223 85.333334-8.533333-5.688889-17.066667-11.377778-28.444444-17.066667-8.533333-5.688889-19.911111-8.533333-31.288889-14.222222-59.733333-25.6-125.155556-42.666667-196.266667-42.666667-261.688889 0-475.022222 213.333333-475.022222 477.866667 0 71.111111 14.222222 136.533333 42.666667 196.266667 5.688889 11.377778 8.533333 19.911111 14.222222 31.288888 5.688889 8.533333 11.377778 17.066667 17.066667 28.444445-68.266667 96.711111-99.555556 167.822222-79.644445 187.733333 5.688889 2.844444 11.377778 5.688889 19.911111 5.688889C85.333333 967.111111 142.222222 938.666667 216.177778 887.466667c99.555556-68.266667 227.555556-179.2 361.244444-310.044445 130.844444-133.688889 238.933333-261.688889 310.044445-361.244444zM307.2 600.177778c-45.511111 0-82.488889-36.977778-82.488889-82.488889s36.977778-82.488889 82.488889-82.488889 82.488889 36.977778 82.488889 82.488889-34.133333 82.488889-82.488889 82.488889z m150.755556-219.022222c-56.888889 0-102.4-45.511111-102.4-102.4s45.511111-102.4 102.4-102.4 102.4 45.511111 102.4 102.4-45.511111 102.4-102.4 102.4z" fill="#2c2c2c" p-id="5051"></path></svg>